# xmcd CD database file
#
# Track frame offsets:
#	150
#	17962
#	33187
#	48462
#	71124
#	90559
#	115944
#	132680
#	149051
#	175106
#
# Disc length: 2649 seconds
#
# Revision: 0
# Processed by: cddbd v1.5.1PL2 Copyright (c) Steve Scherf et al.
# Submitted via: CDex 1.60beta1
#
DISCID=940a570a
DTITLE=CATCHY LABEL アイハラヒロミ 相原隆行 - Love Flower
DYEAR=1998
DGENRE=Ambient
TTITLE0=hirochie/Peacemaking
TTITLE1=hirochie/SILENT ABYSS
TTITLE2=hirochie/Drive to a SPACE
TTITLE3=hirochie , John99/Insanity wire
TTITLE4=hirochie/Love Flowers
TTITLE5=hirochie/WOODS -addolorato-
TTITLE6=hirochie/CRYSTAL Sea View
TTITLE7=hirochie/Red Tube
TTITLE8=hirochie/shell people
TTITLE9=hirochie/WOODS -spritoso- #6 Plain MIX
EXTD=YEAR: 1998
EXTT0=
EXTT1=
EXTT2=
EXTT3=
EXTT4=
EXTT5=
EXTT6=
EXTT7=
EXTT8=
EXTT9=
PLAYORDER=
